<mxfile host="app.diagrams.net" modified="2023-08-03T23:36:08.994Z" agent="Mozilla/5.0 (Windows NT 10.0; Win64; x64) AppleWebKit/537.36 (KHTML, like Gecko) Chrome/115.0.0.0 Safari/537.36" etag="o8n52gdQOFy2o9gPHynB" version="21.6.6" type="github">
  <diagram id="C5RBs43oDa-KdzZeNtuy" name="Page-1">
    <mxGraphModel dx="989" dy="523" grid="1" gridSize="10" guides="1" tooltips="1" connect="1" arrows="1" fold="1" page="1" pageScale="1" pageWidth="827" pageHeight="1169" math="0" shadow="0">
      <root>
        <mxCell id="WIyWlLk6GJQsqaUBKTNV-0" />
        <mxCell id="WIyWlLk6GJQsqaUBKTNV-1" parent="WIyWlLk6GJQsqaUBKTNV-0" />
        <mxCell id="lPOkLXmpnpJpuc5WI1bC-4" value="" style="edgeStyle=orthogonalEdgeStyle;rounded=0;orthogonalLoop=1;jettySize=auto;html=1;" edge="1" parent="WIyWlLk6GJQsqaUBKTNV-1" source="lPOkLXmpnpJpuc5WI1bC-0" target="lPOkLXmpnpJpuc5WI1bC-3">
          <mxGeometry relative="1" as="geometry" />
        </mxCell>
        <mxCell id="lPOkLXmpnpJpuc5WI1bC-0" value="Ahorcado" style="rounded=1;whiteSpace=wrap;html=1;" vertex="1" parent="WIyWlLk6GJQsqaUBKTNV-1">
          <mxGeometry x="330" y="30" width="120" height="60" as="geometry" />
        </mxCell>
        <mxCell id="lPOkLXmpnpJpuc5WI1bC-6" value="" style="edgeStyle=orthogonalEdgeStyle;rounded=0;orthogonalLoop=1;jettySize=auto;html=1;" edge="1" parent="WIyWlLk6GJQsqaUBKTNV-1" source="lPOkLXmpnpJpuc5WI1bC-3" target="lPOkLXmpnpJpuc5WI1bC-5">
          <mxGeometry relative="1" as="geometry" />
        </mxCell>
        <mxCell id="lPOkLXmpnpJpuc5WI1bC-3" value="Generar una palabra aleatoria" style="whiteSpace=wrap;html=1;rounded=1;" vertex="1" parent="WIyWlLk6GJQsqaUBKTNV-1">
          <mxGeometry x="330" y="140" width="120" height="60" as="geometry" />
        </mxCell>
        <mxCell id="lPOkLXmpnpJpuc5WI1bC-8" value="" style="edgeStyle=orthogonalEdgeStyle;rounded=0;orthogonalLoop=1;jettySize=auto;html=1;" edge="1" parent="WIyWlLk6GJQsqaUBKTNV-1" source="lPOkLXmpnpJpuc5WI1bC-5" target="lPOkLXmpnpJpuc5WI1bC-7">
          <mxGeometry relative="1" as="geometry" />
        </mxCell>
        <mxCell id="lPOkLXmpnpJpuc5WI1bC-5" value="Generar tantos espacios como letras tenga la palabra" style="whiteSpace=wrap;html=1;rounded=1;" vertex="1" parent="WIyWlLk6GJQsqaUBKTNV-1">
          <mxGeometry x="330" y="230" width="120" height="60" as="geometry" />
        </mxCell>
        <mxCell id="lPOkLXmpnpJpuc5WI1bC-10" value="" style="edgeStyle=orthogonalEdgeStyle;rounded=0;orthogonalLoop=1;jettySize=auto;html=1;" edge="1" parent="WIyWlLk6GJQsqaUBKTNV-1" source="lPOkLXmpnpJpuc5WI1bC-7" target="lPOkLXmpnpJpuc5WI1bC-9">
          <mxGeometry relative="1" as="geometry" />
        </mxCell>
        <mxCell id="lPOkLXmpnpJpuc5WI1bC-7" value="Preguntar al usuario que adivine una letra" style="whiteSpace=wrap;html=1;rounded=1;" vertex="1" parent="WIyWlLk6GJQsqaUBKTNV-1">
          <mxGeometry x="330" y="320" width="120" height="60" as="geometry" />
        </mxCell>
        <mxCell id="lPOkLXmpnpJpuc5WI1bC-12" value="" style="edgeStyle=orthogonalEdgeStyle;rounded=0;orthogonalLoop=1;jettySize=auto;html=1;" edge="1" parent="WIyWlLk6GJQsqaUBKTNV-1" source="lPOkLXmpnpJpuc5WI1bC-9" target="lPOkLXmpnpJpuc5WI1bC-11">
          <mxGeometry relative="1" as="geometry" />
        </mxCell>
        <mxCell id="lPOkLXmpnpJpuc5WI1bC-15" value="Si&lt;br&gt;" style="edgeLabel;html=1;align=center;verticalAlign=middle;resizable=0;points=[];" vertex="1" connectable="0" parent="lPOkLXmpnpJpuc5WI1bC-12">
          <mxGeometry x="0.4673" relative="1" as="geometry">
            <mxPoint as="offset" />
          </mxGeometry>
        </mxCell>
        <mxCell id="lPOkLXmpnpJpuc5WI1bC-14" value="" style="edgeStyle=orthogonalEdgeStyle;rounded=0;orthogonalLoop=1;jettySize=auto;html=1;" edge="1" parent="WIyWlLk6GJQsqaUBKTNV-1" source="lPOkLXmpnpJpuc5WI1bC-9" target="lPOkLXmpnpJpuc5WI1bC-13">
          <mxGeometry relative="1" as="geometry" />
        </mxCell>
        <mxCell id="lPOkLXmpnpJpuc5WI1bC-16" value="No&lt;br&gt;" style="edgeLabel;html=1;align=center;verticalAlign=middle;resizable=0;points=[];" vertex="1" connectable="0" parent="lPOkLXmpnpJpuc5WI1bC-14">
          <mxGeometry x="0.4458" relative="1" as="geometry">
            <mxPoint as="offset" />
          </mxGeometry>
        </mxCell>
        <mxCell id="lPOkLXmpnpJpuc5WI1bC-9" value="Esta la letra adivinada en la palabra?" style="whiteSpace=wrap;html=1;rounded=1;" vertex="1" parent="WIyWlLk6GJQsqaUBKTNV-1">
          <mxGeometry x="330" y="410" width="120" height="60" as="geometry" />
        </mxCell>
        <mxCell id="lPOkLXmpnpJpuc5WI1bC-20" value="" style="edgeStyle=orthogonalEdgeStyle;rounded=0;orthogonalLoop=1;jettySize=auto;html=1;" edge="1" parent="WIyWlLk6GJQsqaUBKTNV-1" source="lPOkLXmpnpJpuc5WI1bC-11" target="lPOkLXmpnpJpuc5WI1bC-19">
          <mxGeometry relative="1" as="geometry" />
        </mxCell>
        <mxCell id="lPOkLXmpnpJpuc5WI1bC-11" value="Remplazar un espacio por la letra adivinada" style="whiteSpace=wrap;html=1;rounded=1;" vertex="1" parent="WIyWlLk6GJQsqaUBKTNV-1">
          <mxGeometry x="180" y="540" width="120" height="60" as="geometry" />
        </mxCell>
        <mxCell id="lPOkLXmpnpJpuc5WI1bC-18" value="" style="edgeStyle=orthogonalEdgeStyle;rounded=0;orthogonalLoop=1;jettySize=auto;html=1;" edge="1" parent="WIyWlLk6GJQsqaUBKTNV-1" source="lPOkLXmpnpJpuc5WI1bC-13" target="lPOkLXmpnpJpuc5WI1bC-17">
          <mxGeometry relative="1" as="geometry" />
        </mxCell>
        <mxCell id="lPOkLXmpnpJpuc5WI1bC-13" value="El usuario pierde una vida" style="whiteSpace=wrap;html=1;rounded=1;" vertex="1" parent="WIyWlLk6GJQsqaUBKTNV-1">
          <mxGeometry x="500" y="533.21" width="120" height="60" as="geometry" />
        </mxCell>
        <mxCell id="lPOkLXmpnpJpuc5WI1bC-21" style="edgeStyle=orthogonalEdgeStyle;rounded=0;orthogonalLoop=1;jettySize=auto;html=1;entryX=1;entryY=0.5;entryDx=0;entryDy=0;" edge="1" parent="WIyWlLk6GJQsqaUBKTNV-1" source="lPOkLXmpnpJpuc5WI1bC-17" target="lPOkLXmpnpJpuc5WI1bC-7">
          <mxGeometry relative="1" as="geometry">
            <mxPoint x="720" y="360" as="targetPoint" />
            <Array as="points">
              <mxPoint x="710" y="670" />
              <mxPoint x="710" y="350" />
            </Array>
          </mxGeometry>
        </mxCell>
        <mxCell id="lPOkLXmpnpJpuc5WI1bC-22" value="Si" style="edgeLabel;html=1;align=center;verticalAlign=middle;resizable=0;points=[];" vertex="1" connectable="0" parent="lPOkLXmpnpJpuc5WI1bC-21">
          <mxGeometry x="-0.2478" y="1" relative="1" as="geometry">
            <mxPoint as="offset" />
          </mxGeometry>
        </mxCell>
        <mxCell id="lPOkLXmpnpJpuc5WI1bC-24" value="" style="edgeStyle=orthogonalEdgeStyle;rounded=0;orthogonalLoop=1;jettySize=auto;html=1;" edge="1" parent="WIyWlLk6GJQsqaUBKTNV-1" source="lPOkLXmpnpJpuc5WI1bC-17" target="lPOkLXmpnpJpuc5WI1bC-23">
          <mxGeometry relative="1" as="geometry">
            <Array as="points">
              <mxPoint x="560" y="800" />
              <mxPoint x="400" y="800" />
            </Array>
          </mxGeometry>
        </mxCell>
        <mxCell id="lPOkLXmpnpJpuc5WI1bC-25" value="No" style="edgeLabel;html=1;align=center;verticalAlign=middle;resizable=0;points=[];" vertex="1" connectable="0" parent="lPOkLXmpnpJpuc5WI1bC-24">
          <mxGeometry x="0.0636" relative="1" as="geometry">
            <mxPoint as="offset" />
          </mxGeometry>
        </mxCell>
        <mxCell id="lPOkLXmpnpJpuc5WI1bC-17" value="El usuario sigue tieniendo vidas?" style="whiteSpace=wrap;html=1;rounded=1;" vertex="1" parent="WIyWlLk6GJQsqaUBKTNV-1">
          <mxGeometry x="500" y="640" width="120" height="60" as="geometry" />
        </mxCell>
        <mxCell id="lPOkLXmpnpJpuc5WI1bC-26" style="edgeStyle=orthogonalEdgeStyle;rounded=0;orthogonalLoop=1;jettySize=auto;html=1;entryX=0.5;entryY=0;entryDx=0;entryDy=0;exitX=0.5;exitY=1;exitDx=0;exitDy=0;" edge="1" parent="WIyWlLk6GJQsqaUBKTNV-1" source="lPOkLXmpnpJpuc5WI1bC-19">
          <mxGeometry relative="1" as="geometry">
            <mxPoint x="240" y="720" as="sourcePoint" />
            <mxPoint x="430.0000000000002" y="919.97" as="targetPoint" />
            <Array as="points">
              <mxPoint x="240" y="800" />
              <mxPoint x="400" y="800" />
              <mxPoint x="400" y="920" />
            </Array>
          </mxGeometry>
        </mxCell>
        <mxCell id="lPOkLXmpnpJpuc5WI1bC-27" value="Si" style="edgeLabel;html=1;align=center;verticalAlign=middle;resizable=0;points=[];" vertex="1" connectable="0" parent="lPOkLXmpnpJpuc5WI1bC-26">
          <mxGeometry x="-0.7367" y="1" relative="1" as="geometry">
            <mxPoint as="offset" />
          </mxGeometry>
        </mxCell>
        <mxCell id="lPOkLXmpnpJpuc5WI1bC-28" style="edgeStyle=orthogonalEdgeStyle;rounded=0;orthogonalLoop=1;jettySize=auto;html=1;entryX=0;entryY=0.5;entryDx=0;entryDy=0;" edge="1" parent="WIyWlLk6GJQsqaUBKTNV-1" source="lPOkLXmpnpJpuc5WI1bC-19" target="lPOkLXmpnpJpuc5WI1bC-7">
          <mxGeometry relative="1" as="geometry">
            <mxPoint x="130" y="340" as="targetPoint" />
            <Array as="points">
              <mxPoint x="70" y="670" />
              <mxPoint x="70" y="350" />
            </Array>
          </mxGeometry>
        </mxCell>
        <mxCell id="lPOkLXmpnpJpuc5WI1bC-29" value="No" style="edgeLabel;html=1;align=center;verticalAlign=middle;resizable=0;points=[];" vertex="1" connectable="0" parent="lPOkLXmpnpJpuc5WI1bC-28">
          <mxGeometry x="-0.2096" y="-1" relative="1" as="geometry">
            <mxPoint as="offset" />
          </mxGeometry>
        </mxCell>
        <mxCell id="lPOkLXmpnpJpuc5WI1bC-19" value="Estan todos los espacios rellenos?" style="whiteSpace=wrap;html=1;rounded=1;" vertex="1" parent="WIyWlLk6GJQsqaUBKTNV-1">
          <mxGeometry x="180" y="640" width="120" height="60" as="geometry" />
        </mxCell>
        <mxCell id="lPOkLXmpnpJpuc5WI1bC-23" value="Game Over" style="whiteSpace=wrap;html=1;rounded=1;" vertex="1" parent="WIyWlLk6GJQsqaUBKTNV-1">
          <mxGeometry x="340" y="880" width="120" height="60" as="geometry" />
        </mxCell>
      </root>
    </mxGraphModel>
  </diagram>
</mxfile>
